<svg width="51" height="51" viewBox="0 0 51 51" fill="none" xmlns="http://www.w3.org/2000/svg">
<g clip-path="url(#clip0_4568_98)">
<path d="M40.0905 14.228V17.1491H30.8392C30.0556 17.1491 29.293 17.498 28.8475 18.1457C28.077 19.2692 26.7875 20.0041 25.333 20.0041C23.8785 20.0041 22.5891 19.2692 21.8186 18.1457C21.3731 17.498 20.6078 17.1491 19.8268 17.1491H10.5703V14.228H19.8242C20.6078 14.228 21.3757 13.8791 21.8212 13.2288C22.5917 12.1053 23.8811 11.373 25.3356 11.373C26.7902 11.373 28.0796 12.1053 28.8501 13.2288C29.2956 13.8791 30.0635 14.228 30.8471 14.228H40.0957H40.0905Z" fill="#930BF5"/>
<path d="M41.3394 23.9136C40.5558 23.9136 39.7879 23.5646 39.3424 22.9143C38.5719 21.7908 37.2825 21.0586 35.8279 21.0586C34.3734 21.0586 33.084 21.7908 32.3135 22.9143C31.868 23.5646 31.1001 23.9136 30.3165 23.9136H20.3471C19.5635 23.9136 18.7956 23.5646 18.3501 22.9143C17.5796 21.7908 16.2902 21.0586 14.8357 21.0586C13.3811 21.0586 12.0917 21.7908 11.3212 22.9143C10.8757 23.5646 10.1078 23.9136 9.32421 23.9136H0.0703125V26.8347H9.32683C10.1104 26.8347 10.8731 27.1836 11.3186 27.8313C12.0891 28.9547 13.3785 29.6896 14.833 29.6896C16.2876 29.6896 17.577 28.9547 18.3475 27.8313C18.793 27.1836 19.5583 26.8347 20.3393 26.8347H30.3139C31.0975 26.8347 31.8601 27.1836 32.3056 27.8313C33.0761 28.9547 34.3656 29.6896 35.8201 29.6896C37.2746 29.6896 38.564 28.9547 39.3345 27.8313C39.78 27.1836 40.5453 26.8347 41.3263 26.8347H50.5776V23.9136H41.3289H41.3394Z" fill="#930BF5"/>
<path d="M40.0905 33.5972V36.5182H30.8392C30.0556 36.5182 29.293 36.8672 28.8475 37.5148C28.077 38.6383 26.7875 39.3732 25.333 39.3732C23.8785 39.3732 22.5891 38.6383 21.8186 37.5148C21.3731 36.8672 20.6078 36.5182 19.8268 36.5182H10.5703V33.5972H19.8242C20.6078 33.5972 21.3757 33.2482 21.8212 32.5979C22.5917 31.4744 23.8811 30.7422 25.3356 30.7422C26.7902 30.7422 28.0796 31.4744 28.8501 32.5979C29.2956 33.2482 30.0635 33.5972 30.8471 33.5972H40.0957H40.0905Z" fill="#930BF5"/>
</g>
<defs>
<clipPath id="clip0_4568_98">
<rect width="51" height="29" fill="white" transform="translate(0 11)"/>
</clipPath>
</defs>
</svg>
